<svg xmlns="http://www.w3.org/2000/svg" viewBox="0 0 60 60" width="60" height="60">
  <!-- Green circle background -->
  <circle cx="30" cy="30" r="28" fill="#25D366"/>
  <!-- WhatsApp icon -->
  <g transform="translate(12, 12) scale(1.5)">
    <path fill="#FFF" d="M12 2C6.48 2 2 6.48 2 12c0 2.17.7 4.18 1.89 5.81L2.05 22l4.23-1.36C7.76 21.52 9.82 22 12 22c5.52 0 10-4.48 10-10S17.52 2 12 2zm0 18c-1.83 0-3.58-.5-5.11-1.43l-.37-.22-3.68.97.98-3.58-.24-.37C3.05 14.81 2.5 13.44 2.5 12c0-4.14 3.36-7.5 7.5-7.5s7.5 3.36 7.5 7.5-3.36 7.5-7.5 7.5z"/>
    <path fill="#FFF" d="M16.5 13.97c-.24-.12-1.41-.7-1.63-.78-.22-.08-.38-.12-.54.12-.16.24-.62.78-.76.94-.14.16-.28.18-.52.06-.24-.12-1.02-.38-1.94-1.21-.72-.64-1.21-1.44-1.35-1.68-.14-.24-.02-.37.1-.49.1-.1.22-.26.34-.4.12-.14.16-.24.24-.4.08-.16.04-.3-.02-.44-.06-.14-.54-1.3-.74-1.78-.19-.46-.39-.4-.54-.4-.14 0-.3 0-.46.02-.16 0-.42.06-.64.3-.22.24-.84.82-.84 2s.86 2.32.98 2.48c.12.16 1.7 2.59 4.1 3.63.57.25 1.02.4 1.37.51.58.18 1.1.16 1.52.1.46-.08 1.41-.58 1.61-1.14.2-.56.2-1.04.14-1.14-.06-.1-.22-.16-.46-.28z"/>
  </g>
</svg>